<svg height="800" viewBox="0 0 800 800" width="800" xmlns="http://www.w3.org/2000/svg">
    <!-- (C) COPYRIGHT by Kovah.de (https://kovah.de) -->
    <g fill="none" fill-rule="evenodd" transform="">
        <rect fill="#fff" height="800" rx="18" width="800"/>
        <g fill="#2c8edd" fill-rule="nonzero">
            <path d="m17.3450609 0c-4.7848444 0-9.17095174 1.8962737-12.26116374 5.08999782s-5.08389716 7.48529088-5.08389716 12.27587708v381.4504251 59.1837l221-458z"/>
            <path d="m274 299 375.757127-212.8728304 150.242873 42.6144864v-111.3765025c0-4.7903871-1.899278-9.1815754-5.098062-12.27536712-3.098821-3.09379172-7.497149-5.08978638-12.295325-5.08978638h-382.054732-56.178639l65.774991 18.8621495z"/>
            <path d="m550.63739 800h231.972191c4.797357 0 9.194934-1.897822 12.293227-5.094154 3.098293-3.096447 5.097192-7.491404 5.097192-12.285902v-381.761912-210.858032l-363 199.171443z"/>
            <path d="m285.9 470-128.9 71.235241-73 150.663033-84-23.478655v114.196185c0 4.79564 1.9 9.191644 5.1 12.288828 3.1 3.097185 7.5 5.095368 12.3 5.095368h382.2 66.4l-99.5-28.074478z"/>
        </g>
    </g>
</svg>