<?xml version="1.0" encoding="UTF-8" standalone="no"?>
<!DOCTYPE svg PUBLIC "-//W3C//DTD SVG 1.1//EN" "http://www.w3.org/Graphics/SVG/1.1/DTD/svg11.dtd">
<svg viewBox="0 0 600 600" xmlns:xlink="http://www.w3.org/1999/xlink" height="600.0pt" width="600.0pt" xmlns="http://www.w3.org/2000/svg" version="1.1"><defs>
<path d="M 0.00 0.00 L 600.00 0.00 L 600.00 600.00 L 0.00 600.00 L 0.00 0.00 Z" id="p0" />
<path d="M 485.22 32.73 C 505.53 39.71 525.14 49.57 541.86 63.17 C 557.96 75.90 571.17 92.28 580.40 110.61 C 590.05 129.81 595.05 150.65 596.67 172.02 C 597.12 179.34 596.98 186.70 596.92 194.03 C 596.05 216.40 590.27 238.48 578.97 257.89 C 571.33 270.72 561.55 282.51 549.97 291.96 C 532.65 306.57 512.33 316.78 490.99 324.12 C 460.15 334.71 428.57 338.75 396.19 340.56 C 423.26 366.71 450.71 393.13 477.69 419.30 C 486.53 427.47 494.97 436.03 503.63 444.38 C 517.33 457.09 530.34 470.56 544.12 483.16 C 543.77 483.75 543.39 484.34 543.00 484.91 C 536.93 490.76 530.18 495.87 522.48 499.39 C 511.70 504.84 499.97 506.97 487.99 507.32 C 480.07 506.65 472.55 505.95 465.02 503.23 C 455.36 500.05 446.34 495.04 438.74 488.26 C 431.69 482.02 425.21 475.11 418.36 468.64 C 404.90 456.08 392.04 442.97 378.57 430.43 C 370.14 422.19 361.77 413.89 353.15 405.84 C 345.76 398.90 338.73 391.60 331.32 384.69 C 328.67 381.93 325.65 379.59 323.40 376.57 C 311.89 361.43 306.40 341.94 308.99 323.02 C 310.93 309.04 317.40 295.42 327.34 285.35 C 338.97 272.82 355.90 264.88 373.00 264.31 C 378.71 264.60 384.29 263.54 389.99 263.72 C 411.61 263.30 433.52 260.99 454.49 255.57 C 464.72 252.88 474.85 249.25 484.21 244.29 C 497.01 237.29 508.49 227.26 514.68 213.80 C 521.79 199.03 521.37 181.93 518.84 166.10 C 517.58 158.92 515.61 152.03 512.32 145.51 C 505.72 131.62 494.28 121.33 480.85 114.20 C 464.23 105.44 445.71 100.04 427.00 98.45 C 417.42 98.34 407.48 97.80 398.03 99.42 C 373.46 102.75 349.95 113.19 330.51 128.51 C 321.76 135.61 313.65 143.79 306.62 152.59 C 298.70 162.69 292.75 173.71 286.98 185.11 C 261.04 235.51 236.98 287.06 211.77 337.84 C 204.13 353.46 196.54 369.07 188.51 384.53 C 182.44 397.06 175.60 409.17 169.78 421.77 C 164.77 430.83 160.14 440.09 155.08 449.12 C 141.26 475.08 126.42 500.50 112.27 526.25 C 109.45 531.63 106.62 536.93 102.71 541.63 C 92.39 554.62 78.10 563.93 62.11 568.28 C 43.14 573.12 22.38 571.06 5.31 561.20 C 7.64 557.76 9.56 554.13 11.47 550.46 C 16.11 542.35 20.54 534.15 24.82 525.85 C 32.04 513.29 38.69 500.46 45.77 487.83 C 51.36 476.88 57.59 466.28 63.31 455.40 C 69.47 446.23 74.46 436.45 79.91 426.86 C 109.04 373.64 135.70 319.00 162.27 264.47 C 182.19 223.49 201.87 182.24 222.97 141.86 C 233.69 120.70 247.73 101.27 264.53 84.53 C 297.09 52.19 339.76 30.43 385.20 23.68 C 418.67 18.43 453.19 21.81 485.22 32.73 Z" id="p1" /></defs><g stroke-width="10pt">
<use stroke="#ffffff" xlink:href="#p0" />
<use stroke="#43b96d" xlink:href="#p1" /></g>
<g>
<use xlink:href="#p0" fill="#ffffff" />
<use xlink:href="#p1" fill="#43b96d" /></g></svg>