<?xml version="1.0" encoding="UTF-8"?>
<!-- Generator: Adobe Illustrator 18.1.1, SVG Export Plug-In . SVG Version: 6.00 Build 0)  -->
<svg version="1.1" id="Calque_1" xmlns="http://www.w3.org/2000/svg" xmlns:xlink="http://www.w3.org/1999/xlink" x="0px" y="0px" viewBox="0 0 2804.6 1092" enable-background="new 0 0 2804.6 1092" xml:space="preserve">
<linearGradient id="SVGID_1_" gradientUnits="userSpaceOnUse" x1="2562.5933" y1="1095.1294" x2="250.1598" y2="-239.9547">
	<stop offset="0" style="stop-color:#5356C2"/>
	<stop offset="1" style="stop-color:#383BAF"/>
</linearGradient>
<rect x="70.5" y="71.3" fill="url(#SVGID_1_)" width="2671.8" height="712.7"/>
<g>
	<path fill="#FFFFFF" d="M596.3,428.1c0,115.2-85.5,203.6-197.8,203.6H253h-14.5c-9.3,0-14.5-5.2-14.5-14.5V239   c0-9.3,5.2-14.5,14.5-14.5H317h81.4C510.7,224.5,596.3,312.9,596.3,428.1z M506.7,428.1c0-69.8-44.2-114-108.2-114H317v228h81.4   C462.5,542.1,506.7,497.9,506.7,428.1z"/>
	<path fill="#FFFFFF" d="M892.9,556.7v60.5c0,9.3-5.2,14.5-14.5,14.5H677.7h-14.5c-9.3,0-14.5-5.2-14.5-14.5V239   c0-9.3,5.2-14.5,14.5-14.5h78.5h133.8c9.3,0,14.5,5.2,14.5,14.5v60.5c0,9.3-5.2,14.5-14.5,14.5H741.7v68.1H861   c9.3,0,14.5,5.2,14.5,14.5v58.2c0,9.3-5.2,14.5-14.5,14.5H741.7v72.7h136.7C887.7,542.1,892.9,547.4,892.9,556.7z"/>
	<path fill="#FFFFFF" d="M1033.7,619.5L915.6,240.8c-2.9-9.9,1.7-16.3,12.2-16.3h71.6c8.1,0,14,3.5,16.3,12.2l80.9,287.4l80.9-287.4   c2.3-8.7,8.1-12.2,16.3-12.2h71.6c10.5,0,15.1,6.4,12.2,16.3l-118.1,378.7c-2.3,8.1-8.1,12.2-16.3,12.2H1050   C1041.9,631.7,1036.1,627.7,1033.7,619.5z"/>
	<path fill="#FFFFFF" d="M1736.5,428.1c0-119.8,89-211.8,211.8-211.8c93.1,0,172.2,58.2,196.1,143.1c2.3,9.9-2.9,16.3-12.8,16.3   h-68.6c-8.1,0-12.8-4.1-16.3-11.6c-16.3-35.5-54.1-57-98.3-57c-72.1,0-118.7,48.3-118.7,121c0,72.7,46.5,121,118.7,121   c44.2,0,82-21.5,98.3-57c3.5-7.6,8.1-11.6,16.3-11.6h68.6c9.9,0,15.1,5.8,12.8,15.1c-22.7,84.9-102.4,144.3-196.1,144.3   C1825.5,639.9,1736.5,548,1736.5,428.1z"/>
	<path fill="#FFFFFF" d="M2171,428.1c0-119.8,94.8-211.8,211.8-211.8c116.9,0,211.8,91.9,211.8,211.8   c0,119.8-94.8,211.8-211.8,211.8C2265.9,639.9,2171,548,2171,428.1z M2501.5,428.1c0-72.7-52.4-121-118.7-121   s-118.7,48.3-118.7,121c0,72.7,52.4,121,118.7,121S2501.5,500.8,2501.5,428.1z"/>
</g>
<g>
	<path fill="#231F20" d="M1580.1,916.4c-10.4,0-18.6,3.3-24.6,10c-6,6.7-9,15.8-9,27.4c0,11.9,2.8,21.1,8.5,27.7   c5.7,6.6,13.7,9.8,24.2,9.8c7,0,13.4-0.9,19.2-2.7v5.1c-5.5,1.9-12.4,2.9-20.6,2.9c-11.7,0-20.9-3.8-27.6-11.3   c-6.7-7.5-10.1-18.1-10.1-31.6c0-8.5,1.6-15.9,4.8-22.4c3.2-6.4,7.8-11.4,13.8-14.9c6-3.5,13-5.3,21-5.3c8.1,0,15.4,1.5,21.8,4.6   l-2.3,5.2C1593.1,918,1586.7,916.4,1580.1,916.4z"/>
	<path fill="#231F20" d="M1739.3,953.9c0,13.2-3.3,23.6-9.9,31.3c-6.6,7.7-15.7,11.5-27.3,11.5c-11.6,0-20.7-3.8-27.3-11.5   c-6.6-7.7-9.9-18.2-9.9-31.4c0-13.2,3.3-23.7,10-31.3s15.8-11.4,27.3-11.4c11.6,0,20.7,3.8,27.3,11.5   C1736,930.2,1739.3,940.6,1739.3,953.9z M1671.3,953.9c0,11.9,2.7,21.1,8,27.6c5.3,6.5,12.9,9.8,22.9,9.8c10,0,17.7-3.2,23-9.7   c5.3-6.4,7.9-15.7,7.9-27.7c0-12-2.6-21.2-7.9-27.6c-5.3-6.4-12.9-9.6-22.8-9.6c-9.9,0-17.5,3.2-22.9,9.7   C1673.9,932.8,1671.3,942,1671.3,953.9z"/>
	<path fill="#231F20" d="M1871.3,995.6h-5.9l-49.3-73.9h-0.5c0.5,8.8,0.7,15.4,0.7,19.9v53.9h-5.6v-83.2h5.8l49.2,73.7h0.3   c-0.3-6.8-0.5-13.3-0.5-19.5v-54.3h5.6V995.6z"/>
	<path fill="#231F20" d="M2007.8,995.6h-5.9l-49.3-73.9h-0.5c0.5,8.8,0.7,15.4,0.7,19.9v53.9h-5.6v-83.2h5.8l49.2,73.7h0.3   c-0.3-6.8-0.5-13.3-0.5-19.5v-54.3h5.6V995.6z"/>
	<path fill="#231F20" d="M2129.3,995.6h-45.5v-83.2h45.5v5.3h-39.7v31.5h37.4v5.3h-37.4v35.7h39.7V995.6z"/>
	<path fill="#231F20" d="M2236,916.4c-10.4,0-18.6,3.3-24.6,10c-6,6.7-9,15.8-9,27.4c0,11.9,2.8,21.1,8.5,27.7   c5.7,6.6,13.7,9.8,24.2,9.8c7,0,13.4-0.9,19.2-2.7v5.1c-5.5,1.9-12.4,2.9-20.6,2.9c-11.7,0-20.9-3.8-27.6-11.3   c-6.7-7.5-10.1-18.1-10.1-31.6c0-8.5,1.6-15.9,4.8-22.4c3.2-6.4,7.8-11.4,13.8-14.9c6-3.5,13-5.3,21-5.3c8.1,0,15.4,1.5,21.8,4.6   l-2.3,5.2C2249.1,918,2242.7,916.4,2236,916.4z"/>
	<path fill="#231F20" d="M2347,995.6h-5.9v-77.7h-27v-5.5h59.9v5.5h-27V995.6z"/>
</g>
<g>
	<path fill="#231F20" d="M1364.8,980.9c0-3.3,0.9-6.1,2.7-8.5c1.8-2.3,5.1-4.8,9.9-7.4l-2.7-3c-1.6-1.7-2.8-3.4-3.5-5   c-0.8-1.6-1.2-3.3-1.2-5.1c0-3.4,1.1-6.2,3.4-8.2c2.3-2,5.4-3,9.3-3c3.7,0,6.7,1,8.9,2.9c2.2,1.9,3.3,4.6,3.3,8.1   c0,2.5-0.8,4.8-2.5,6.9c-1.7,2.1-4.7,4.4-9.1,7l16.3,16.5c1.5-1.7,2.7-3.6,3.8-5.7c1-2,1.9-4.5,2.7-7.2h3.5c-1.5,5.9-4,11-7.5,15.4   l9.6,9.7h-4.9l-7-7.1c-2.2,2.2-4.2,3.7-5.9,4.7s-3.6,1.8-5.7,2.3s-4.4,0.8-7,0.8c-5,0-9-1.2-11.8-3.7   C1366.3,988.8,1364.8,985.3,1364.8,980.9z M1381.3,991.7c3.1,0,5.9-0.5,8.5-1.6s5.1-2.8,7.6-5.3l-17.4-17.5   c-3.3,1.7-5.6,3.2-7.1,4.4c-1.5,1.2-2.5,2.5-3.2,4c-0.7,1.4-1,3.1-1,5c0,3.4,1.1,6.1,3.4,8.1   C1374.2,990.7,1377.3,991.7,1381.3,991.7z M1373.9,951.8c0,1.9,0.5,3.7,1.4,5.3c1,1.6,2.8,3.7,5.5,6.3c3.8-2,6.5-4,8-5.7   c1.5-1.8,2.2-3.8,2.2-6.1c0-2.3-0.7-4.1-2.2-5.5c-1.5-1.4-3.5-2.1-6.1-2.1c-2.7,0-4.9,0.7-6.5,2.1   C1374.7,947.4,1373.9,949.3,1373.9,951.8z"/>
</g>
<g>
	<path fill="#231F20" d="M481.7,954.4c0,14-3.7,24.5-11,31.7c-7.3,7.2-18.1,10.7-32.3,10.7h-19.9v-83.2H441   c13.3,0,23.4,3.5,30.3,10.4C478.3,930.9,481.7,941,481.7,954.4z M475.4,954.6c0-11.9-3-20.9-9.1-26.9c-6.1-6-14.9-9-26.7-9h-15.3   v72.9h13.8C463,991.6,475.4,979.3,475.4,954.6z"/>
	<path fill="#231F20" d="M598.7,996.7h-45.5v-83.2h45.5v5.3h-39.7v31.5h37.4v5.3h-37.4v35.7h39.7V996.7z"/>
	<path fill="#231F20" d="M719.2,913.6h6.3l-31.1,83.2h-5.1l-31-83.2h6.2l20.9,56.6c3.2,8.5,5.3,14.9,6.4,19.2   c0.8-2.8,2.3-7.3,4.5-13.3L719.2,913.6z"/>
	<path fill="#231F20" d="M835.2,996.7h-45.5v-83.2h45.5v5.3h-39.7v31.5h37.4v5.3h-37.4v35.7h39.7V996.7z"/>
	<path fill="#231F20" d="M906.4,996.7v-83.2h5.8v77.7h39.7v5.5H906.4z"/>
	<path fill="#231F20" d="M1088.6,955c0,13.2-3.3,23.6-9.9,31.3c-6.6,7.7-15.7,11.5-27.3,11.5c-11.6,0-20.7-3.8-27.3-11.5   c-6.6-7.7-9.9-18.2-9.9-31.4c0-13.2,3.3-23.7,10-31.3c6.7-7.6,15.8-11.4,27.3-11.4c11.6,0,20.7,3.8,27.3,11.5   C1085.3,931.4,1088.6,941.8,1088.6,955z M1020.5,955c0,11.9,2.7,21.1,8,27.6c5.3,6.5,12.9,9.8,22.9,9.8c10,0,17.7-3.2,23-9.7   c5.3-6.4,7.9-15.7,7.9-27.7c0-12-2.6-21.2-7.9-27.6c-5.3-6.4-12.9-9.6-22.8-9.6c-9.9,0-17.5,3.2-22.9,9.7   C1023.2,934,1020.5,943.2,1020.5,955z"/>
	<path fill="#231F20" d="M1210.2,937.5c0,8-2.7,14.2-8.2,18.5c-5.5,4.3-13.2,6.4-23.2,6.4h-12.9v34.4h-5.8v-83.2h20.4   C1200.3,913.6,1210.2,921.5,1210.2,937.5z M1165.9,957.4h11.4c9.4,0,16.1-1.5,20.3-4.6c4.2-3.1,6.3-8.1,6.3-15   c0-6.4-2-11.2-5.9-14.3c-3.9-3.1-10.1-4.6-18.3-4.6h-13.8V957.4z"/>
</g>
<g>
	<defs>
		<path id="SVGID_2_" d="M1436,404.8c-21.9-34.6,0,0-21.9-34.6c0,0-27.2-44.6-42.3-46.1c-32.1,0-27.8,41.9-28.8,47    c0,49,0,97.9,0,146.9c31.1,0,62.1,0,93.2,0C1436,480.3,1436,442.6,1436,404.8z"/>
	</defs>
	<clipPath id="SVGID_3_">
		<use xlink:href="#SVGID_2_" overflow="visible"/>
	</clipPath>
</g>
<g>
	<g>
		<g>
			<path fill="#FFFFFF" d="M1572.6,224.5h64c9.3,0,14.5,5.2,14.5,14.5v378.1c0,9.3-5.2,14.5-14.5,14.5H1593c-7.6,0-14-2.9-18-9.3     l-139-217.6v212.3c0,9.3-5.2,14.5-14.5,14.5h-64c-9.3,0-14.5-5.2-14.5-14.5V239.1c0-9.3,5.2-14.5,14.5-14.5h43.6     c7.6,0,14,2.9,18,9.3l139,217.6V239.1C1558.1,229.7,1563.3,224.5,1572.6,224.5z"/>
		</g>
		<rect x="1558" y="71.3" fill="#FFFFFF" width="93.1" height="193.7"/>
		<rect x="1342.8" y="590.8" fill="#FFFFFF" width="93.1" height="193.1"/>
	</g>
	<g>
		<defs>
			<path id="SVGID_4_" d="M1435.9,404.9c-21.9-34.6-0.6-0.7-22-34.6c0,0-28.9-46.1-44.1-46.1c-32,0-25.7,41.8-26.8,46.9l0,147h92.9     L1435.9,404.9z"/>
		</defs>
		<clipPath id="SVGID_5_">
			<use xlink:href="#SVGID_4_" overflow="visible"/>
		</clipPath>
		
			<radialGradient id="SVGID_6_" cx="2232.0154" cy="-3.3099" r="157.6183" gradientTransform="matrix(0.9974 0 0 1 -744.9058 353.8882)" gradientUnits="userSpaceOnUse">
			<stop offset="0" style="stop-color:#383BAF"/>
			<stop offset="9.205461e-003" style="stop-color:#3B3EB0"/>
			<stop offset="0.2078" style="stop-color:#7678C8"/>
			<stop offset="0.3993" style="stop-color:#A7A8DC"/>
			<stop offset="0.5791" style="stop-color:#CDCEEB"/>
			<stop offset="0.7442" style="stop-color:#E9E9F6"/>
			<stop offset="0.8897" style="stop-color:#F9F9FD"/>
			<stop offset="1" style="stop-color:#FFFFFF"/>
		</radialGradient>
		<ellipse clip-path="url(#SVGID_5_)" fill="url(#SVGID_6_)" cx="1481.4" cy="350.6" rx="157.2" ry="157.6"/>
	</g>
	<g>
		<defs>
			<path id="SVGID_7_" d="M1558,451.3c21.9,34.6,0.6,0.7,22,34.6c0,0,28.9,46.1,44.1,46.1c32,0,25.7-41.8,26.8-46.9l0-147h-92.7     L1558,451.3z"/>
		</defs>
		<clipPath id="SVGID_8_">
			<use xlink:href="#SVGID_7_" overflow="visible"/>
		</clipPath>
		
			<radialGradient id="SVGID_9_" cx="2430.5134" cy="245.0806" r="157.6183" gradientTransform="matrix(-0.9974 0 0 -1 3936.8032 750.6713)" gradientUnits="userSpaceOnUse">
			<stop offset="0" style="stop-color:#383BAF"/>
			<stop offset="9.205461e-003" style="stop-color:#3B3EB0"/>
			<stop offset="0.2078" style="stop-color:#7678C8"/>
			<stop offset="0.3993" style="stop-color:#A7A8DC"/>
			<stop offset="0.5791" style="stop-color:#CDCEEB"/>
			<stop offset="0.7442" style="stop-color:#E9E9F6"/>
			<stop offset="0.8897" style="stop-color:#F9F9FD"/>
			<stop offset="1" style="stop-color:#FFFFFF"/>
		</radialGradient>
		<ellipse clip-path="url(#SVGID_8_)" fill="url(#SVGID_9_)" cx="1512.5" cy="505.6" rx="157.2" ry="157.6"/>
	</g>
</g>
</svg>